<?xml version='1.0' encoding='utf-8'?>
<svg xmlns="http://www.w3.org/2000/svg" enable-background="new 0 0 4000 4000" version="1.1" viewBox="0 0 4e3 4e3"> <style type="text/css"> .st0{display:none;} .st1{display:inline;fill:#FFFFFF;} .st2{fill:#F1E3F4;} .st3{fill:#445861;} .st4{fill:#9D29AD;} .st5{fill:#A948B8;} .st6{fill:#8E25A8;} .st7{fill:#7921A0;} .st8{fill:#ECEDEF;} .st9{fill:#AEBDC4;} .st10{fill:#691D98;} .st11{fill:#27313A;} .st12{fill:#536D78;} .st13{fill:#778F9B;} .st14{fill:#CE92D6;} .st15{fill:#36464E;} .st16{fill:#5E7B8B;} .st17{fill:#90A2AC;} .st18{fill:#4B1689;} .st19{fill:#CED6D9;} .st20{fill:#B968C7;} .st21{fill:#E0BDE7;} </style> <g class="st0"> <rect class="st1" width="4e3" height="4e3"/> </g> <path class="st2" d="m1121.8 2891.3s-272.6-155.1-144.3-341.8 451.5-211.5 376.8-422.6c-74.6-211.1-368-674.7-23.3-582 88.3 23.8 215 101.8 359.2 204.3 113.1 80.4 209.3 269.9 333.9 366 336.2 259.3 705.2 429 853.5 413.3 273.2-29 184.9 362.9 58 362.9s-1813.8-0.1-1813.8-0.1z"/> <ellipse class="st2" transform="matrix(.5 -.866 .866 .5 -469.2 3127)" cx="2473.4" cy="1969.8" rx="222" ry="499.8"/> <path class="st2" d="m2739.2 1655.6c-29.5 51.1-71.5 26.3-153.4-21s-172.8-99.3-143.3-150.4 119.9-54.2 201.8-6.9 124.4 127.2 94.9 178.3z"/> <path class="st2" d="m1910.6 1566c-29.6 51.2-117 56.2-195.2 11s-160.3-224.7-130.7-275.9 159.6 45.2 237.8 90.4c78.2 45.1 117.6 123.2 88.1 174.5z"/> <path class="st3" d="m2989.9 2463.9h-42.9c-3.3 0-6-2.7-6-6s2.7-6 6-6h42.9c3.3 0 6 2.7 6 6s-2.7 6-6 6z"/> <path class="st3" d="m2989.9 2487.5h-42.9c-3.3 0-6-2.7-6-6s2.7-6 6-6h42.9c3.3 0 6 2.7 6 6s-2.7 6-6 6z"/> <path class="st3" d="m1112.4 2677.7h-45c-3.3 0-6-2.7-6-6s2.7-6 6-6h45c3.3 0 6 2.7 6 6s-2.7 6-6 6z"/> <path class="st3" d="m1112.4 2702.3h-45c-3.3 0-6-2.7-6-6s2.7-6 6-6h45c3.3 0 6 2.7 6 6s-2.7 6-6 6z"/> <path class="st4" d="m1981.3 1231.2h-43.4c-3.3 0-6 2.7-6 6s2.7 6 6 6h43.4c3.3 0 6-2.7 6-6s-2.7-6-6-6z"/> <path class="st4" d="m1981.3 1255h-43.4c-3.3 0-6 2.7-6 6s2.7 6 6 6h43.4c3.3 0 6-2.7 6-6s-2.7-6-6-6z"/> <path class="st5" d="m1104.3 2134.3c-2.3-2.3-6.1-2.3-8.5 0l-15.6 15.6-15.6-15.6c-2.3-2.3-6.1-2.3-8.5 0-2.3 2.3-2.3 6.1 0 8.5l15.6 15.6-15.6 15.6c-2.3 2.3-2.3 6.1 0 8.5 1.2 1.2 2.7 1.8 4.2 1.8s3.1-0.6 4.2-1.8l15.6-15.6 15.6 15.6c1.2 1.2 2.7 1.8 4.2 1.8s3.1-0.6 4.2-1.8c2.3-2.3 2.3-6.1 0-8.5l-15.6-15.6 15.6-15.6c2.6-2.4 2.6-6.2 0.2-8.5z"/> <path class="st5" d="m2669.3 1690.6 15.6-15.6c2.3-2.3 2.3-6.1 0-8.5-2.3-2.3-6.1-2.3-8.5 0l-15.6 15.6-15.6-15.6c-2.3-2.3-6.1-2.3-8.5 0-2.3 2.3-2.3 6.1 0 8.5l15.6 15.6-15.6 15.6c-2.3 2.3-2.3 6.1 0 8.5 1.2 1.2 2.7 1.8 4.2 1.8s3.1-0.6 4.2-1.8l15.6-15.6 15.6 15.6c1.2 1.2 2.7 1.8 4.2 1.8s3.1-0.6 4.2-1.8c2.3-2.3 2.3-6.1 0-8.5l-15.4-15.6z"/> <path class="st3" d="m1468.2 1457.6c-2.3-2.3-6.1-2.3-8.5 0l-15.6 15.6-15.6-15.6c-2.3-2.3-6.1-2.3-8.5 0-2.3 2.3-2.3 6.1 0 8.5l15.6 15.6-15.6 15.6c-2.3 2.3-2.3 6.1 0 8.5 1.2 1.2 2.7 1.8 4.2 1.8s3.1-0.6 4.2-1.8l15.6-15.6 15.6 15.6c1.2 1.2 2.7 1.8 4.2 1.8s3.1-0.6 4.2-1.8c2.3-2.3 2.3-6.1 0-8.5l-15.6-15.6 15.6-15.6c2.6-2.4 2.6-6.2 0.2-8.5z"/> <circle class="st4" cx="2936.5" cy="2735.1" r="22.1"/> <circle class="st4" cx="2514.8" cy="1368.9" r="22.1"/> <circle class="st3" cx="1901.8" cy="1481.7" r="18.6"/> <circle class="st4" cx="965.2" cy="1630.6" r="22.1"/> <path class="st3" d="m1952.1 1671.2v-33.5c0-34.1-27.6-61.7-61.7-61.7-17 0-32.5 6.9-43.6 18.1-11.2 11.2-18.1 26.6-18.1 43.6v33.5h-59.1v92h241.7v-92h-59.2zm-32.5 0h-58.5v-33.8c0-16.2 13.1-29.3 29.3-29.3s29.3 13.1 29.3 29.3v33.8z"/> <rect class="st6" x="1455.8" y="1700.7" width="869.1" height="1190.6"/> <path class="st7" d="M1455.8,1700.7l798.6,16.9c29.8,0.6,53.8,24.7,54.2,54.6l16.3,1119.1V1700.7H1455.8z"/> <rect class="st8" x="1501.4" y="1763.2" width="777.9" height="1085"/> <polygon class="st9" points="2083.2 1763.2 2083.2 1815.1 1722.6 1815.1 1714.2 1806.1 2066.5 1806.1 2066.5 1763.2"/> <path class="st10" d="m2066.5 1763.2h16.7c0-34.5-28-62.5-62.5-62.5h-9.5 5.3c27.6 0 50 22.4 50 50v12.5z"/> <path class="st11" d="m1769.5 1700.1 211.7-2.9c15-0.2 27.6-11.2 30-25.9v29.5l-241.7-0.7z"/> <path class="st11" d="m1919.6 1671.2h32.5v-33.5l-2.2 16.2c-1.1 8.4-7.8 14.9-16.2 15.8l-14.1 1.5z"/> <path class="st11" d="m1828.7 1671.2h32.5v-33.5l-2.2 16.2c-1.1 8.4-7.8 14.9-16.2 15.8l-14.1 1.5z"/> <path class="st10" d="m2279.3 1763.2v1085h-777.9c19.1 14.8 42.6 22.8 66.8 22.8h733.8v-1034.8c0.1-26-7.8-51.5-22.7-73z"/> <path class="st12" d="m2066.5 1806.1h-352.3v-55.4c0-16.3 7.8-30.8 19.9-39.9 8.4-6.3 18.8-10.1 30.1-10.1h252.3c13.8 0 26.3 5.6 35.4 14.6 9 9 14.6 21.5 14.6 35.4v55.4z"/> <path class="st13" d="m1714.2 1806.1h19.3v-68.8c0-20 16-36.3 36-36.7h-5.3c-27.6 0-50 22.4-50 50v55.5z"/> <path class="st5" d="m1789.4 1945.2c0 51.9-42.1 94-94 94s-94-42.1-94-94c0-2.2 0.1-4.3 0.2-6.5 3.3-48.9 44.1-87.5 93.8-87.5v94h94z"/> <path class="st12" d="m1786.7 1922.5h-69.8v-68.9c31.2 7.3 56.4 30.1 67.1 59.9 1 2.9 1.9 5.9 2.7 9z"/> <path class="st14" d="m1788.5 1945.2c-6.3 45.8-45.6 81-93.1 81-49.7 0-90.5-38.6-93.8-87.5 3.3-48.9 44.1-87.5 93.8-87.5v94h93.1z"/> <path class="st13" d="m1783.9 1913.5h-67.1v-59.9c31.3 7.3 56.5 30.1 67.1 59.9z"/> <rect class="st15" x="1669.4" y="2135.7" width="89" height="577.3"/> <polygon class="st11" points="1758.4 2713 1713.9 2713 1713.9 2168.1 1758.4 2135.7"/> <rect class="st15" x="1813.4" y="2279.6" width="89" height="433.4"/> <rect class="st15" x="1813.4" y="2279.6" width="89" height="433.4"/> <rect class="st11" x="1857.9" y="2279.6" width="44.5" height="433.4"/> <rect class="st11" x="1857.9" y="2279.6" width="44.5" height="433.4"/> <rect class="st15" x="1956.3" y="2424.4" width="89" height="288.6"/> <rect class="st11" x="2000.8" y="2424.4" width="44.5" height="288.6"/> <polygon class="st12" points="1669.4 2135.7 1713.9 2168.1 1758.4 2135.7"/> <polygon class="st12" points="1956.3 2424.4 2000.8 2456.7 2045.3 2424.4"/> <polygon class="st12" points="1813.4 2279.6 1857.9 2311.9 1902.4 2279.6"/> <rect class="st16" x="2018.9" y="1853.6" width="198" height="28.4"/> <rect class="st16" x="1981.3" y="1913.7" width="235.6" height="28.4"/> <rect class="st16" x="1929.3" y="1969" width="287.7" height="28.4"/> <path class="st3" d="m2018.9 1882 172.8-5.3c11.9-0.4 22.1-8.8 24.6-20.4l0.6-2.7v28.4h-198z"/> <path class="st3" d="m1981.3 1942.1 210.4-5.3c11.9-0.4 22.1-8.8 24.6-20.4l0.6-2.7v28.4h-235.6z"/> <path class="st3" d="m1929.3 1997.4 262.5-5.3c11.9-0.4 22.1-8.8 24.6-20.4l0.6-2.7v28.4h-287.7z"/> <path class="st9" d="m1528.8 2684h-211.4c-3.1 0-5.9 1.4-7.7 3.7-1.4 1.7-2.3 3.9-2.3 6.3v49.1c0 2.8 1.1 5.3 2.9 7.1s4.3 2.9 7.1 2.9h211.4c3.1 0 5.9-1.4 7.7-3.7 1.4-1.7 2.3-3.9 2.3-6.3v-49.1c0-2.3-0.8-4.5-2.1-6.2-1.8-2.3-4.7-3.8-7.9-3.8z"/> <rect class="st17" x="1336.3" y="2684" width="43.4" height="69.1"/> <rect class="st17" x="1466.5" y="2684" width="43.4" height="69.1"/> <path class="st13" d="m1538.8 2732.8h-231.4v10.3c0 5.5 4.5 10 10 10h211.4c5.5 0 10-4.5 10-10v-10.3z"/> <rect class="st16" x="1336.3" y="2732.8" width="43.4" height="20.3"/> <rect class="st16" x="1466.5" y="2732.8" width="43.4" height="20.3"/> <path class="st9" d="m1550.5 2753.1h-211.4c-2.7 0-5.1 1.1-6.9 2.8-1.9 1.8-3.1 4.4-3.1 7.2v49.1c0 2.8 1.1 5.3 2.9 7.1s4.3 2.9 7.1 2.9h211.4c2.8 0 5.3-1.1 7.1-2.9s2.9-4.3 2.9-7.1v-49.1c0-3.3-1.6-6.2-4.1-8-1.6-1.3-3.6-2-5.9-2z"/> <rect class="st17" x="1358" y="2753.1" width="43.4" height="69.1"/> <rect class="st17" x="1488.2" y="2753.1" width="43.4" height="69.1"/> <path class="st13" d="m1560.5 2801.9h-231.4v10.3c0 5.5 4.5 10 10 10h211.4c5.5 0 10-4.5 10-10v-10.3z"/> <rect class="st16" x="1358" y="2801.9" width="43.4" height="20.3"/> <rect class="st16" x="1488.2" y="2801.9" width="43.4" height="20.3"/> <path class="st9" d="m1528.2 2822.2h-211.4c-2 0-3.9 0.6-5.4 1.6-2.8 1.8-4.6 4.9-4.6 8.4v49.1c0 2.6 1 4.9 2.6 6.7 1.8 2 4.5 3.3 7.4 3.3h211.4c2.8 0 5.3-1.1 7.1-2.9s2.9-4.3 2.9-7.1v-49.1c0-2.4-0.8-4.6-2.2-6.3-1.9-2.3-4.7-3.7-7.8-3.7z"/> <rect class="st17" x="1335.7" y="2822.2" width="43.4" height="69.1"/> <rect class="st17" x="1465.9" y="2822.2" width="43.4" height="69.1"/> <path class="st13" d="M1538.2,2871h-231.4v10.3c0,5.5,4.5,10,10,10h211.4c5.5,0,10-4.5,10-10V2871z"/> <rect class="st16" x="1335.7" y="2871" width="43.4" height="20.3"/> <rect class="st16" x="1465.9" y="2871" width="43.4" height="20.3"/> <path class="st9" d="m1571.6 2614.9h-211.4c-2.2 0-4.2 0.7-5.8 1.9-2.5 1.8-4.2 4.8-4.2 8.1v49.1c0 2.7 1.1 5.2 2.8 7 1.8 1.9 4.4 3 7.2 3h211.4c3.5 0 6.6-1.8 8.4-4.5 1-1.6 1.6-3.5 1.6-5.5v-49.1c0-2.5-0.9-4.7-2.3-6.4-1.9-2.2-4.6-3.6-7.7-3.6z"/> <rect class="st17" x="1379.1" y="2614.9" width="43.4" height="69.1"/> <rect class="st17" x="1509.3" y="2614.9" width="43.4" height="69.1"/> <path class="st13" d="m1581.6 2663.7h-231.4v10.3c0 5.5 4.5 10 10 10h211.4c5.5 0 10-4.5 10-10v-10.3z"/> <rect class="st16" x="1379.1" y="2663.7" width="43.4" height="20.3"/> <rect class="st16" x="1509.3" y="2663.7" width="43.4" height="20.3"/> <rect class="st7" transform="matrix(.7071 .7071 -.7071 .7071 2033.9 -294.77)" x="1355.4" y="2285.1" width="34.7" height="45.2"/> <path class="st18" d="m1344.5 2311.5 7 5.3c10.2 7.8 24.4 7.5 34.4-0.5l15.1-12.2-32 32-24.5-24.6z"/> <path class="st5" d="m1206.2 2474.3c-10.6-10.6-10.6-27.7 0-38.3l131.4-131.4 38.3 38.3-131.4 131.4c-10.6 10.6-27.8 10.6-38.3 0z"/> <path class="st4" d="m1206.2 2474.3c-10.6-10.6-10.6-27.7 0-38.3 11.6 17.7 36.2 21.2 52.3 7.4l117.4-100.5-131.4 131.4c-10.6 10.6-27.8 10.6-38.3 0z"/> <path class="st9" d="m1557.1 2306.5c-15.9 15.9-35.2 26.4-55.6 31.5-14.9 3.7-30.5 4.5-45.6 2.4v-236.8c15.2-2.1 30.7-1.3 45.6 2.4 20.4 5.1 39.7 15.6 55.6 31.5 46.7 46.6 46.7 122.3 0 169z"/> <path class="st10" d="m1501.4 2105.9v232.1c-14.9 3.7-30.5 4.5-45.6 2.4v-236.8c15.2-2.2 30.7-1.4 45.6 2.3z"/> <circle class="st3" cx="1468.5" cy="2212" r="119.6"/> <path class="st9" d="m1536.7 2280.2c-32.5 32.5-82.3 36.9-119.6 13.4-6-3.8-11.6-8.2-16.8-13.4-37.7-37.7-37.7-98.7 0-136.4 36.1-36.2 93.9-37.6 131.8-4.3 1.6 1.4 3.1 2.8 4.6 4.3 37.7 37.6 37.7 98.7 0 136.4z"/> <path class="st19" d="m1536.7 2280.2c-32.5 32.5-82.3 36.9-119.6 13.4-1.6-1.4-3.1-2.8-4.6-4.3-37.7-37.7-37.7-98.7 0-136.4 32.5-32.5 82.3-36.9 119.6-13.4 1.6 1.4 3.1 2.8 4.6 4.3 37.7 37.6 37.7 98.7 0 136.4z"/> <path class="st8" d="m1537.3 2279.6-0.6 0.6c-3.3 3.3-6.9 6.4-10.5 9.1l-93.9-166.7c4.6-1.9 9.3-3.3 14.1-4.5l90.9 161.5z"/> <path class="st8" d="m1506.1 2300.8c-4.6 1.9-9.2 3.5-14 4.7l-91.4-162.1c3.6-3.5 7.3-6.7 11.2-9.5l94.2 166.9z"/> <rect class="st20" transform="matrix(.9397 -.342 .342 .9397 -533.14 987.36)" x="2282.5" y="1894.3" width="501.4" height="222.4"/> <path class="st2" d="m2404.1 2146.9 319-116.1c-10.9-30 4.6-63.2 34.6-74.2l-21.1-58c-30 10.9-63.2-4.6-74.2-34.6l-319 116.1c10.9 30-4.6 63.2-34.6 74.2l21.1 58c30-10.9 63.2 4.6 74.2 34.6z"/> <path class="st6" d="m2553 2059.9c-2.8 1-5.6 1.8-8.4 2.4-27.6 5.6-55.8-9.7-65.7-36.9-9.9-27.3 1.9-57.1 26.6-70.6 2.5-1.4 5.2-2.6 7.9-3.6 30-10.9 63.2 4.5 74.2 34.6 10.9 29.9-4.6 63.1-34.6 74.1z"/> <path class="st5" d="m2544.6 2062.2c-27.6 5.6-55.8-9.7-65.7-36.9-9.9-27.3 1.9-57.1 26.6-70.6 27.6-5.6 55.8 9.7 65.7 36.9 10 27.3-1.9 57.2-26.6 70.6z"/> <path class="st5" d="m2730.8 1815.2-9 3.3 60 165.9c7.4 19.7-2.4 41.7-22.1 49.2l-284.4 108.7h-58.8l-12.4 4.5c-0.6-1.6-1.2-3.1-1.9-4.5h-86l19.4 53.4 146.7-53.4 324.5-118.1-76-209z"/> <polygon class="st10" points="1455.8 1939.7 1455.8 1960.9 1501.4 1979.5 1501.4 1968.1 1470.3 1954.2"/> <polygon class="st9" points="1501.4 1979.5 1552.4 1990.8 1501.4 1968.1"/> <rect class="st5" transform="matrix(.7071 -.7071 .7071 .7071 -876.23 1495.3)" x="1334.8" y="1627" width="64.3" height="356.8"/> <rect class="st20" transform="matrix(.7071 -.7071 .7071 .7071 -864.87 1500)" x="1362.2" y="1615.6" width="32.1" height="356.8"/> <polygon class="st14" points="1515.8 1908.8 1552.4 1990.8 1511.4 1972.5 1470.3 1954.2"/> <rect class="st12" transform="matrix(.7071 -.7071 .7071 .7071 -819.75 1359)" x="1193.3" y="1654.5" width="74.6" height="28.9"/> <path class="st14" d="m1243.1 1636.1-45.5 45.5-26.7-26.7c-4.1-4.1-6.2-9.5-6.2-14.9 0-5.2 1.9-10.5 5.8-14.5 0.1-0.1 0.2-0.2 0.3-0.4l15.7-15.7c4.1-4.1 9.5-6.2 14.9-6.2s10.8 2.1 14.9 6.2l24.7 24.7 2.1 2z"/> <path class="st21" d="m1243.1 1636.1-40.3 36.2-26.7-26.7c-4.1-4.1-6.2-9.5-6.2-14.9 0-1.8 0.2-3.6 0.7-5.3 0.1-0.1 0.2-0.2 0.3-0.4l15.7-15.7c4.1-4.1 9.5-6.2 14.9-6.2s10.8 2.1 14.9 6.2l26.7 26.8z"/> <polygon class="st11" points="1534.1 1949.8 1552.4 1990.8 1511.4 1972.5"/> <path class="st3" d="m1194 1685.1 6 4.5c7.9 5.9 19 5.5 26.4-1l40.7-35.8-52.7 52.7-20.4-20.4z"/> <path class="st4" d="m1218 1702 252.3 252.3 6.7-6.7-239.9-240.7c-5.2-5.2-6-13.5-1.8-19.6l5.5-8-22.8 22.7z"/> <path class="st14" d="m1263.5 1656.5 252.3 252.3-6.7 6.7-240.7-239.9c-5.2-5.2-13.5-6-19.6-1.8l-8 5.5 22.7-22.8z"/> <path class="st9" d="m2375.3 1504.3v168.3h-138l-50.1 62c-1 1.3-2.6 1.3-3.7 0.7-1-0.6-1.7-1.8-1.3-3.2l16.5-59.4h-42.2v-168.3h218.8z"/> <path class="st11" d="m2238 1586.8c-14.5 0-26.3-11.8-26.3-26.3s11.8-26.3 26.3-26.3 26.3 11.8 26.3 26.3-11.8 26.3-26.3 26.3zm0-40.5c-7.9 0-14.3 6.4-14.3 14.3s6.4 14.3 14.3 14.3 14.3-6.4 14.3-14.3-6.4-14.3-14.3-14.3z"/> <path class="st11" d="m2293.8 1642.6c-14.5 0-26.3-11.8-26.3-26.3s11.8-26.3 26.3-26.3 26.3 11.8 26.3 26.3c-0.1 14.5-11.9 26.3-26.3 26.3zm0-40.5c-7.9 0-14.3 6.4-14.3 14.3s6.4 14.3 14.3 14.3 14.3-6.4 14.3-14.3-6.5-14.3-14.3-14.3z"/> <path class="st11" d="m2223.7 1636.7c-1.5 0-3.1-0.6-4.2-1.8-2.3-2.3-2.3-6.1 0-8.5l84.4-84.4c2.3-2.3 6.1-2.3 8.5 0 2.3 2.3 2.3 6.1 0 8.5l-84.4 84.4c-1.3 1.2-2.8 1.8-4.3 1.8z"/> <path class="st13" d="m2156.5 1504.3 186.2 7.8c12 0.5 21.4 10.3 21.4 22.3v107c0 11.9-9.4 21.8-21.3 22.3l-186.4 8.8h218.8v-168.3h-218.7z"/> <path class="st19" d="m2375.3 1672.6-186.4-8.8c-11.9-0.6-21.3-10.4-21.3-22.3v-107c0-12 9.4-21.8 21.4-22.3l186.2-7.8h-218.8v168.3h42.2l-16.5 59.4c-0.4 1.4 0.3 2.6 1.3 3.2 1.1 0.7 2.7 0.6 3.7-0.7l50.1-62h138.1z"/> <rect class="st7" x="2279.3" y="2142.4" width="45.6" height="16.1"/> <polygon class="st19" points="2279.3 2142.4 2141.1 2142.4 2112.1 2158.4 2279.3 2158.4"/> <rect class="st20" x="2112.1" y="2158.4" width="666" height="732.8"/> <polygon class="st5" points="2739.6 2328.8 2757.6 2360.6 2758.2 2869.4 2112.1 2869.4 2112.1 2328.8"/> <rect class="st21" x="2160.4" y="2198.7" width="555.4" height="98.4"/> <polygon class="st2" points="2492.7 2198.7 2462.5 2198.7 2299.2 2297.1 2329.4 2297.1"/> <polygon class="st2" points="2576.9 2198.7 2546.7 2198.7 2383.4 2297.1 2413.7 2297.1"/> <rect class="st3" x="2160.4" y="2358.1" width="109.9" height="84.9"/> <rect class="st3" x="2308.9" y="2358.1" width="109.9" height="84.9"/> <rect class="st3" x="2457.4" y="2358.1" width="109.9" height="84.9"/> <rect class="st3" x="2605.9" y="2358.1" width="109.9" height="84.9"/> <rect class="st3" x="2160.4" y="2487.9" width="109.9" height="84.9"/> <rect class="st3" x="2308.9" y="2487.9" width="109.9" height="84.9"/> <rect class="st3" x="2457.4" y="2487.9" width="109.9" height="84.9"/> <rect class="st3" x="2605.9" y="2487.9" width="109.9" height="84.9"/> <rect class="st3" x="2160.4" y="2617.8" width="109.9" height="84.9"/> <rect class="st3" x="2308.9" y="2617.8" width="109.9" height="84.9"/> <rect class="st3" x="2457.4" y="2617.8" width="109.9" height="84.9"/> <rect class="st3" x="2605.9" y="2617.8" width="109.9" height="84.9"/> <rect class="st3" x="2160.4" y="2747.6" width="109.9" height="84.9"/> <rect class="st3" x="2308.9" y="2747.6" width="109.9" height="84.9"/> <rect class="st3" x="2457.4" y="2747.6" width="109.9" height="84.9"/> <rect class="st3" x="2605.9" y="2747.6" width="109.9" height="84.9"/> <path class="st15" d="m2418.8 2358.1v84.9h-109.9l84.4-6.1c8.7-0.6 15.4-7.9 15.4-16.6v-37.2c0-8.6-6.5-15.7-15-16.6l-84.9-8.4h110z"/> <path class="st15" d="m2567.3 2358.1v84.9h-109.9l84.4-6.1c8.7-0.6 15.4-7.9 15.4-16.6v-37.2c0-8.6-6.5-15.7-15-16.6l-84.9-8.4h110z"/> <path class="st15" d="m2715.8 2358.1v84.9h-109.9l84.4-6.1c8.7-0.6 15.4-7.9 15.4-16.6v-37.2c0-8.6-6.5-15.7-15-16.6l-84.9-8.4h110z"/> <path class="st15" d="m2715.8 2487.9v84.9h-109.9l84.4-6.1c8.7-0.6 15.4-7.9 15.4-16.6v-37.2c0-8.6-6.5-15.7-15-16.6l-84.9-8.4h110z"/> <path class="st15" d="m2567.3 2487.9v84.9h-109.9l84.4-6.1c8.7-0.6 15.4-7.9 15.4-16.6v-37.2c0-8.6-6.5-15.7-15-16.6l-84.9-8.4h110z"/> <path class="st15" d="m2418.8 2487.9v84.9h-109.9l84.4-6.1c8.7-0.6 15.4-7.9 15.4-16.6v-37.2c0-8.6-6.5-15.7-15-16.6l-84.9-8.4h110z"/> <path class="st15" d="m2270.3 2617.8v84.9h-109.9l84.4-6.1c8.7-0.6 15.4-7.9 15.4-16.6v-37.2c0-8.6-6.5-15.7-15-16.6l-84.9-8.4h110z"/> <path class="st15" d="m2418.8 2617.8v84.9h-109.9l84.4-6.1c8.7-0.6 15.4-7.9 15.4-16.6v-37.2c0-8.6-6.5-15.7-15-16.6l-84.9-8.4h110z"/> <path class="st15" d="m2567.3 2617.8v84.9h-109.9l84.4-6.1c8.7-0.6 15.4-7.9 15.4-16.6v-37.2c0-8.6-6.5-15.7-15-16.6l-84.9-8.4h110z"/> <path class="st15" d="m2715.8 2617.8v84.9h-109.9l84.4-6.1c8.7-0.6 15.4-7.9 15.4-16.6v-37.2c0-8.6-6.5-15.7-15-16.6l-84.9-8.4h110z"/> <path class="st15" d="m2715.8 2747.6v84.9h-109.9l84.4-6.1c8.7-0.6 15.4-7.9 15.4-16.6v-37.2c0-8.6-6.5-15.7-15-16.6l-84.9-8.4h110z"/> <path class="st15" d="m2567.3 2747.6v84.9h-109.9l84.4-6.1c8.7-0.6 15.4-7.9 15.4-16.6v-37.2c0-8.6-6.5-15.7-15-16.6l-84.9-8.4h110z"/> <path class="st15" d="m2418.8 2747.6v84.9h-109.9l84.4-6.1c8.7-0.6 15.4-7.9 15.4-16.6v-37.2c0-8.6-6.5-15.7-15-16.6l-84.9-8.4h110z"/> <path class="st15" d="m2270.3 2747.6v84.9h-109.9l84.4-6.1c8.7-0.6 15.4-7.9 15.4-16.6v-37.2c0-8.6-6.5-15.7-15-16.6l-84.9-8.4h110z"/> <path class="st15" d="m2270.3 2358.1v84.9h-109.9l84.4-6.1c8.7-0.6 15.4-7.9 15.4-16.6v-37.2c0-8.6-6.5-15.7-15-16.6l-84.9-8.4h110z"/> <path class="st16" d="m2160.4 2358.1v84.9h109.9l-84.4-6.1c-8.7-0.6-15.4-7.9-15.4-16.6v-37.2c0-8.6 6.5-15.7 15-16.6l84.9-8.4h-110z"/> <path class="st16" d="m2308.9 2358.1v84.9h109.9l-84.4-6.1c-8.7-0.6-15.4-7.9-15.4-16.6v-37.2c0-8.6 6.5-15.7 15-16.6l84.9-8.4h-110z"/> <path class="st16" d="m2457.4 2358.1v84.9h109.9l-84.4-6.1c-8.7-0.6-15.4-7.9-15.4-16.6v-37.2c0-8.6 6.5-15.7 15-16.6l84.9-8.4h-110z"/> <path class="st16" d="m2605.9 2358.1v84.9h109.9l-84.4-6.1c-8.7-0.6-15.4-7.9-15.4-16.6v-37.2c0-8.6 6.5-15.7 15-16.6l84.9-8.4h-110z"/> <path class="st16" d="m2605.9 2487.9v84.9h109.9l-84.4-6.1c-8.7-0.6-15.4-7.9-15.4-16.6v-37.2c0-8.6 6.5-15.7 15-16.6l84.9-8.4h-110z"/> <path class="st16" d="m2457.4 2487.9v84.9h109.9l-84.4-6.1c-8.7-0.6-15.4-7.9-15.4-16.6v-37.2c0-8.6 6.5-15.7 15-16.6l84.9-8.4h-110z"/> <path class="st16" d="m2308.9 2487.9v84.9h109.9l-84.4-6.1c-8.7-0.6-15.4-7.9-15.4-16.6v-37.2c0-8.6 6.5-15.7 15-16.6l84.9-8.4h-110z"/> <path class="st16" d="m2160.4 2487.9v84.9h109.9l-84.4-6.1c-8.7-0.6-15.4-7.9-15.4-16.6v-37.2c0-8.6 6.5-15.7 15-16.6l84.9-8.4h-110z"/> <path class="st15" d="m2270.3 2487.9v84.9h-109.9l84.4-6.1c8.7-0.6 15.4-7.9 15.4-16.6v-37.2c0-8.6-6.5-15.7-15-16.6l-84.9-8.4h110z"/> <path class="st16" d="m2160.4 2617.8v84.9h109.9l-84.4-6.1c-8.7-0.6-15.4-7.9-15.4-16.6v-37.2c0-8.6 6.5-15.7 15-16.6l84.9-8.4h-110z"/> <path class="st16" d="m2308.9 2617.8v84.9h109.9l-84.4-6.1c-8.7-0.6-15.4-7.9-15.4-16.6v-37.2c0-8.6 6.5-15.7 15-16.6l84.9-8.4h-110z"/> <path class="st16" d="m2457.4 2617.8v84.9h109.9l-84.4-6.1c-8.7-0.6-15.4-7.9-15.4-16.6v-37.2c0-8.6 6.5-15.7 15-16.6l84.9-8.4h-110z"/> <path class="st16" d="m2605.9 2617.8v84.9h109.9l-84.4-6.1c-8.7-0.6-15.4-7.9-15.4-16.6v-37.2c0-8.6 6.5-15.7 15-16.6l84.9-8.4h-110z"/> <path class="st16" d="m2605.9 2747.6v84.9h109.9l-84.4-6.1c-8.7-0.6-15.4-7.9-15.4-16.6v-37.2c0-8.6 6.5-15.7 15-16.6l84.9-8.4h-110z"/> <path class="st16" d="m2457.4 2747.6v84.9h109.9l-84.4-6.1c-8.7-0.6-15.4-7.9-15.4-16.6v-37.2c0-8.6 6.5-15.7 15-16.6l84.9-8.4h-110z"/> <path class="st16" d="m2308.9 2747.6v84.9h109.9l-84.4-6.1c-8.7-0.6-15.4-7.9-15.4-16.6v-37.2c0-8.6 6.5-15.7 15-16.6l84.9-8.4h-110z"/> <path class="st16" d="m2160.4 2747.6v84.9h109.9l-84.4-6.1c-8.7-0.6-15.4-7.9-15.4-16.6v-37.2c0-8.6 6.5-15.7 15-16.6l84.9-8.4h-110z"/> <polygon class="st4" points="2757.6 2179 2757.6 2297.1 2739.6 2328.8 2757.6 2360.6 2758.2 2869.4 2112.1 2869.4 2112.1 2891.3 2778.1 2891.3 2778.1 2869.4 2778.1 2158.4"/> <polygon class="st14" points="2778.1 2158.4 2757.6 2179 2134 2179 2122.4 2179 2112.1 2179 2112.1 2158.4"/> <rect class="st18" x="2279.3" y="2142.4" width="22.8" height="16.1"/> <path d="m3271.8 2918h-2542.7c-7.4 0-13.4-6-13.4-13.4s6-13.4 13.4-13.4h2542.7c7.4 0 13.4 6 13.4 13.4 0 7.5-6 13.4-13.4 13.4z"/> </svg>